<?xml version="1.0" encoding="UTF-8"?>
<!DOCTYPE svg PUBLIC "-//W3C//DTD SVG 1.1//EN" "http://www.w3.org/Graphics/SVG/1.1/DTD/svg11.dtd">
<!-- Creator: CorelDRAW -->
<svg xmlns="http://www.w3.org/2000/svg" xml:space="preserve" width="100mm" height="100mm" version="1.1" style="shape-rendering:geometricPrecision; text-rendering:geometricPrecision; image-rendering:optimizeQuality; fill-rule:evenodd; clip-rule:evenodd"
viewBox="0 0 9992.41 9992.41"
 xmlns:xlink="http://www.w3.org/1999/xlink"
 xmlns:xodm="http://www.corel.com/coreldraw/odm/2003">
 <defs>
  <style type="text/css">
   <![CDATA[
    .fil0 {fill:#212529}
    .fil1 {fill:#FEFEFE;fill-rule:nonzero}
    .fil2 {fill:#FF577F;fill-rule:nonzero}
   ]]>
  </style>
 </defs>
 <g id="Camada_x0020_1">
  <metadata id="CorelCorpID_0Corel-Layer"/>
  <rect class="fil0" width="9992.41" height="9992.41"/>
  <g id="_1440095042128">
   <g>
    <path class="fil1" d="M1623.09 6086.21l-605.98 0 -183.24 -164.87 605.98 0 216.19 143.07 -32.94 21.8zm32.94 -1039.07l0 1017.27 -249.13 -121.27 0 -1017.27 2.99 -10.7 246.14 131.97zm295.12 -443.74l-298.1 454.44 -243.16 -142.67 298.1 -454.44 240.11 111.86 3.05 30.81zm544.96 1359.85l-785.06 -1471.71 237.06 81.06 785.06 1471.71 -26.91 41.91 -210.15 -122.97zm935.15 122.97l-725 0 -183.24 -164.87 725 0 209.84 122.38 -26.6 42.5zm-1049.61 -2019.29l1076.21 1976.79 -236.44 -79.88 -1076.21 -1976.79 -3.31 -31.47 239.75 111.35zm1066.91 -1571.36l-1063.6 1602.82 -243.06 -142.81 1063.6 -1602.82 29.91 -11.03 213.15 153.84zm-939.53 -153.84l726.38 0 183.24 164.87 -726.38 0 -213.22 -153.74 29.98 -11.13zm-1061.4 1589.5l1031.43 -1578.37 243.2 142.61 -1031.43 1578.37 -29.98 11.13 -213.22 -153.74zm-7.77 -11.13l37.75 0 183.24 164.87 -37.75 0 -216.19 -143.07 32.94 -21.8zm216.19 -1435.3l0 1578.37 -249.13 -121.27 0 -1578.37 32.94 -21.8 216.19 143.07zm-822.17 -143.07l605.98 0 183.24 164.87 -605.98 0 -216.19 -143.07 32.94 -21.8zm-32.94 3601.41l0 -3579.61 249.13 121.27 0 3579.61 -32.94 21.8 -216.19 -143.07z"/>
    <polygon id="_1" class="fil2" points="925.49,6003.78 1531.47,6003.78 1531.47,4986.51 1829.57,4532.07 2614.63,6003.78 3339.63,6003.78 2263.42,4026.99 3327.02,2424.17 2600.64,2424.17 1569.22,4002.54 1531.47,4002.54 1531.47,2424.17 925.49,2424.17 "/>
   </g>
   <g>
    <path class="fil1" d="M3326.46 7607.01l-605.99 0 -183.24 -164.87 605.99 0 216.19 143.07 -32.94 21.8zm32.94 -1500.47l0 1478.67 -249.13 -121.27 0 -1478.67 32.94 -21.8 216.19 143.07zm1197.21 21.8l-1230.16 0 -183.24 -164.87 1230.16 0 216.19 143.07 -32.94 21.8zm-216.19 1335.59l0 -1478.67 249.13 121.27 0 1478.67 -32.94 21.8 -216.19 -143.07zm820.8 143.07l-604.61 0 -183.24 -164.87 604.61 0 216.19 143.07 -32.94 21.8zm32.94 -3601.41l0 3579.61 -249.13 -121.27 0 -3579.61 32.94 -21.8 216.19 143.07zm-820.8 -143.07l604.61 0 183.24 164.87 -604.61 0 -216.19 -143.07 32.94 -21.8zm-32.94 1498.74l0 -1476.94 249.13 121.27 0 1476.94 -32.94 21.8 -216.19 -143.07zm-1197.21 -21.8l1230.16 0 183.24 164.87 -1230.16 0 -216.19 -143.07 32.94 -21.8zm216.19 -1333.87l0 1476.94 -249.13 -121.27 0 -1476.94 32.94 -21.8 216.19 143.07zm-822.18 -143.07l605.99 0 183.24 164.87 -605.99 0 -216.19 -143.07 32.94 -21.8zm-32.94 3601.41l0 -3579.61 249.13 121.27 0 3579.61 -32.94 21.8 -216.19 -143.07z"/>
    <polygon id="_1_0" class="fil2" points="2628.85,7524.57 3234.84,7524.57 3234.84,6045.91 4465,6045.91 4465,7524.57 5069.61,7524.57 5069.61,3944.96 4465,3944.96 4465,5421.9 3234.84,5421.9 3234.84,3944.96 2628.85,3944.96 "/>
   </g>
   <g>
    <path class="fil1" d="M6092.89 7012.69l-183.24 -164.87 0 0 15.66 -0.43 16.22 -1.36 16.6 -2.31 16.86 -3.34 17.01 -4.35 17.03 -5.41 17.01 -6.47 16.88 -7.51 16.69 -8.59 16.45 -9.66 16.14 -10.73 15.8 -11.8 15.4 -12.87 14.94 -13.92 14.46 -14.99 13.93 -16.05 13.35 -17.09 12.74 -18.15 12.1 -19.19 11.4 -20.22 10.68 -21.26 9.94 -22.29 9.12 -23.32 8.3 -24.36 7.44 -25.36 6.54 -26.39 5.62 -27.4 4.64 -28.41 3.63 -29.4 2.61 -30.42 1.54 -31.41 0.44 -32.4 249.13 121.07 -0.46 34.11 -1.62 33.08 -2.75 32.06 -3.85 31.04 -4.9 30.01 -5.94 28.96 -6.91 27.95 -7.88 26.9 -8.82 25.86 -9.72 24.82 -10.58 23.77 -11.42 22.74 -12.24 21.68 -13 20.62 -13.76 19.59 -14.47 18.53 -15.17 17.47 -15.82 16.41 -16.48 15.36 -17.1 14.27 -17.68 13.22 -18.26 12.13 -18.83 11.06 -19.39 9.97 -19.91 8.87 -20.46 7.78 -21.02 6.66 -21.58 5.53 -22.19 4.38 -22.85 3.19 -23.57 1.96 -24.39 0.67 0 0zm-588.43 -656.89l249.13 121.27 0 -0.11 0.53 28.56 1.34 27.79 2.14 26.99 2.92 26.17 3.65 25.33 4.39 24.43 5.1 23.52 5.77 22.57 6.4 21.57 6.98 20.52 7.52 19.43 7.98 18.22 8.34 16.95 8.59 15.57 8.64 14.01 8.47 12.31 7.98 10.38 7.07 8.26 5.58 5.83 3.54 3.3 0.92 0.79 -1.88 -1.36 -4.05 -2.57 -4.81 -2.68 -3.78 -1.82 -1.2 -0.51 2.26 0.74 5.74 1.52 8.94 1.81 11.59 1.65 13.79 1.16 15.6 0.42 183.24 164.87 -26.17 -0.74 -27.02 -2.28 -28.22 -4.05 -29.89 -6.11 -32.06 -8.59 -34.49 -11.55 -36.87 -14.94 -38.33 -18.37 -38.26 -21.3 -36.34 -23.25 -33.01 -24.06 -29.02 -23.93 -25.18 -23.36 -21.9 -22.79 -19.15 -22.27 -16.94 -22.01 -15.15 -21.96 -13.62 -22.06 -12.33 -22.32 -11.2 -22.7 -10.14 -23.17 -9.18 -23.68 -8.26 -24.26 -7.37 -24.85 -6.51 -25.49 -5.66 -26.12 -4.81 -26.79 -3.97 -27.43 -3.12 -28.09 -2.28 -28.77 -1.42 -29.41 -0.57 -30.06 0 -0.11zm249.13 -1455.3l0 1576.57 -249.13 -121.27 0 -1576.57 32.94 -21.8 216.19 143.07zm-812.38 -143.07l596.2 0 183.24 164.87 -596.2 0 -216.19 -143.07 32.94 -21.8zm-32.94 1731.2l0 -1709.4 249.13 121.27 0 1709.4 -249.13 -121.21 0 -0.06zm760.69 988.43l183.24 164.87 0 0 -45.47 -1.28 -45.96 -3.91 -46.79 -6.74 -48.06 -9.86 -49.75 -13.38 -51.76 -17.37 -53.58 -21.72 -54.56 -26.12 -54.01 -30.05 -51.67 -33 -47.78 -34.74 -43.37 -35.61 -39.1 -36.12 -35.18 -36.43 -31.91 -36.89 -29.12 -37.58 -26.7 -38.43 -24.54 -39.44 -22.6 -40.58 -20.8 -41.85 -19.09 -43.16 -17.42 -44.55 -15.79 -45.96 -14.18 -47.39 -12.58 -48.84 -10.96 -50.28 -9.33 -51.75 -7.71 -53.19 -6.07 -54.63 -4.4 -56.06 -2.71 -57.46 -0.99 -58.87 249.13 121.15 0.97 57.35 2.63 55.82 4.26 54.26 5.85 52.67 7.39 51.03 8.91 49.37 10.38 47.64 11.8 45.89 13.18 44.06 14.49 42.16 15.72 40.21 16.87 38.16 17.91 36.01 18.79 33.74 19.49 31.33 19.92 28.7 20.02 25.87 19.72 22.82 18.84 19.53 17.28 16 15.33 12.61 13.13 9.58 11.46 7.32 11.22 6.25 12.77 6.1 15.77 6.38 19.55 6.54 23.45 6.29 27 5.53 30.05 4.31 32.65 2.77 34.79 0.96 0 0zm652.14 -522.57l183.24 164.87 32.06 -15.6 -9.61 29.72 -10.42 29.07 -11.22 28.4 -12.02 27.73 -12.8 27.02 -13.57 26.31 -14.35 25.57 -15.11 24.81 -15.86 24.04 -16.63 23.26 -17.37 22.44 -18.1 21.62 -18.86 20.77 -19.58 19.91 -20.31 19.03 -21.02 18.13 -21.75 17.22 -22.47 16.27 -23.21 15.31 -23.92 14.34 -24.64 13.33 -25.38 12.31 -26.1 11.27 -26.84 10.21 -27.61 9.11 -28.36 7.99 -29.12 6.86 -29.92 5.7 -30.73 4.5 -31.59 3.26 -32.43 1.98 -33.31 0.68 -183.24 -164.87 26.78 -0.54 26.57 -1.62 26.33 -2.72 26.05 -3.82 25.74 -4.9 25.38 -5.99 25 -7.05 24.55 -8.11 24.12 -9.17 23.64 -10.21 23.14 -11.23 22.62 -12.23 22.08 -13.24 21.53 -14.21 20.95 -15.17 20.35 -16.1 19.76 -17.05 19.14 -17.93 18.52 -18.84 17.86 -19.68 17.2 -20.54 16.55 -21.38 15.85 -22.18 15.16 -22.98 14.47 -23.75 13.75 -24.51 13.03 -25.23 12.28 -25.96 11.56 -26.67 10.8 -27.34 10.04 -27.99 9.27 -28.64 32.06 -15.6zm205.64 164.87l-22.4 0 -183.24 -164.87 22.4 0 216.19 143.07 -32.94 21.8zm-216.19 344.58l0 -487.65 249.13 121.27 0 487.65 -32.94 21.8 -216.19 -143.07zm788.62 143.07l-572.43 0 -183.24 -164.87 572.43 0 216.19 143.07 -32.94 21.8zm32.94 -2706.51l0 2684.71 -249.13 -121.27 0 -2684.71 32.94 -21.8 216.19 143.07zm-812.39 -143.07l596.21 0 183.24 164.87 -596.21 0 -216.19 -143.07 32.94 -21.8zm-32.94 1563.45l0 -1541.65 249.13 121.27 0 1541.65 -249.13 -121.17 0 -0.1z"/>
    <path id="_1_1" class="fil2" d="M6411.35 6381.51c1.37,360.06 -195.9,548.74 -410.08,548.74 -225.25,0 -370.87,-197.44 -372.25,-513.82l0 -1576.57 -596.2 0 0 1709.4c1.37,627.43 295.27,1010.23 727.75,1010.23 323.32,0 555.62,-208 652.14,-522.57l22.4 0 0 487.65 572.43 0 0 -2684.71 -596.21 0 0 1541.65z"/>
   </g>
   <g>
    <path class="fil1" d="M7649.84 7607.01l-587.79 0 -183.24 -164.87 587.79 0 216.19 143.07 -32.94 21.8zm32.94 -451.8l0 429.99 -249.13 -121.27 0 -429.99 32.94 -21.8 216.19 143.07zm-6.35 21.8l-26.6 0 -183.24 -164.87 26.6 0 213.73 130.83 -30.49 34.04zm426.95 308.8l183.24 164.87 0 0 -36.28 -0.82 -36.19 -2.5 -36.26 -4.22 -36.54 -6.04 -37.07 -7.96 -37.85 -10.08 -38.7 -12.37 -39.57 -14.79 -40.19 -17.29 -40.12 -19.58 -39.38 -21.56 -37.74 -22.99 -35.48 -23.87 -32.88 -24.28 -30.13 -24.31 -27.53 -24.17 -25.12 -23.91 -23.04 -23.69 -21.16 -23.46 -19.54 -23.27 -18.14 -23.17 -16.89 -23.1 -15.73 -23.03 -14.68 -22.97 -13.75 -22.94 -12.86 -22.9 -12.02 -22.82 -11.24 -22.74 -10.49 -22.65 -9.77 -22.48 -9.11 -22.35 -8.45 -22.15 244.21 96.79 7.59 19.93 8.13 19.93 8.65 19.9 9.15 19.75 9.66 19.55 10.14 19.29 10.62 18.91 11.05 18.47 11.46 17.92 11.79 17.28 12.03 16.49 12.22 15.62 12.26 14.62 12.09 13.41 11.73 12.08 11.17 10.64 10.32 9.08 9.3 7.52 8.13 6.04 7.16 4.83 6.55 4.01 6.6 3.62 7.54 3.69 9.21 3.96 11.57 4.32 14.24 4.54 16.87 4.49 19.49 4.19 21.85 3.6 24.03 2.8 25.98 1.78 27.83 0.62 0 0zm838.96 -1360.76l249.13 121.27 0 0 -1.12 83.67 -3.33 81.24 -5.49 78.79 -7.59 76.3 -9.65 73.83 -11.65 71.35 -13.63 68.85 -15.53 66.33 -17.41 63.8 -19.21 61.26 -20.97 58.72 -22.7 56.16 -24.38 53.57 -26 51 -27.58 48.39 -29.13 45.79 -30.62 43.18 -32.08 40.52 -33.49 37.89 -34.86 35.23 -36.2 32.55 -37.51 29.87 -38.79 27.17 -40.05 24.45 -41.29 21.71 -42.53 18.95 -43.74 16.18 -45.01 13.36 -46.27 10.49 -47.58 7.59 -48.99 4.62 -50.47 1.57 -183.24 -164.87 40.72 -1.27 40.84 -3.86 40.77 -6.52 40.54 -9.19 40.13 -11.92 39.62 -14.64 38.99 -17.39 38.25 -20.11 37.43 -22.85 36.51 -25.57 35.53 -28.29 34.46 -31.01 33.34 -33.69 32.16 -36.37 30.9 -39.04 29.58 -41.7 28.21 -44.35 26.78 -46.97 25.28 -49.58 23.74 -52.19 22.14 -54.78 20.49 -57.36 18.79 -59.9 17.03 -62.46 15.23 -64.99 13.35 -67.51 11.45 -70.03 9.47 -72.51 7.45 -74.98 5.41 -77.45 3.27 -79.92 1.1 -82.35 0 0zm-654.35 -1237.68l-183.24 -164.87 0 0 49.87 1.53 50.92 4.73 52.35 8.19 54.21 12.05 56.49 16.39 58.9 21.26 60.77 26.45 61.34 31.45 59.93 35.63 56.72 38.66 52.36 40.57 47.83 41.82 43.68 42.92 40.04 44.06 36.94 45.42 34.29 47.01 31.93 48.84 29.77 50.82 27.74 52.96 25.79 55.23 23.88 57.56 21.97 59.97 20.06 62.43 18.15 64.94 16.18 67.49 14.18 70.06 12.12 72.65 10.05 75.25 7.9 77.9 5.72 80.54 3.47 83.2 1.17 85.84 -249.13 -121.27 -1.15 -84.45 -3.41 -81.66 -5.6 -78.88 -7.72 -76.08 -9.77 -73.27 -11.76 -70.46 -13.68 -67.6 -15.52 -64.75 -17.29 -61.88 -18.95 -58.96 -20.51 -56 -21.98 -52.98 -23.31 -49.91 -24.48 -46.74 -25.45 -43.49 -26.17 -40.05 -26.58 -36.46 -26.57 -32.67 -25.99 -28.63 -24.77 -24.37 -22.89 -20.05 -20.52 -15.93 -18.23 -12.44 -16.93 -10.07 -17.34 -8.88 -19.59 -8.48 -23.04 -8.29 -26.89 -7.77 -30.51 -6.75 -33.56 -5.24 -36.09 -3.33 -38.1 -1.15 0 0zm-611.56 485.85l-183.24 -164.87 -31.76 14.69 7.87 -20.93 8.45 -21.18 9.03 -21.35 9.64 -21.49 10.27 -21.53 10.91 -21.56 11.57 -21.51 12.26 -21.4 12.97 -21.25 13.69 -21.01 14.44 -20.74 15.21 -20.42 15.99 -20.01 16.8 -19.57 17.64 -19.06 18.49 -18.5 19.38 -17.88 20.28 -17.19 21.2 -16.44 22.19 -15.65 23.16 -14.77 24.19 -13.87 25.26 -12.87 26.35 -11.82 27.49 -10.71 28.68 -9.54 29.92 -8.27 31.19 -6.96 32.54 -5.57 33.93 -4.08 35.4 -2.52 36.91 -0.86 183.24 164.87 -29.42 0.68 -28.77 2.06 -28.12 3.38 -27.42 4.69 -26.71 5.97 -25.96 7.19 -25.2 8.38 -24.45 9.53 -23.65 10.62 -22.88 11.65 -22.07 12.65 -21.3 13.59 -20.51 14.47 -19.73 15.3 -18.97 16.07 -18.18 16.78 -17.45 17.44 -16.68 18.04 -15.94 18.57 -15.23 19.06 -14.51 19.49 -13.8 19.84 -13.13 20.15 -12.45 20.39 -11.8 20.6 -11.15 20.71 -10.53 20.8 -9.91 20.81 -9.32 20.77 -8.75 20.67 -8.17 20.5 -7.63 20.29 -31.76 14.69zm-201.44 -164.87l18.2 0 183.24 164.87 -18.2 0 -216.19 -143.07 32.94 -21.8zm216.19 -1202.76l0 1345.83 -249.13 -121.27 0 -1345.83 32.94 -21.8 216.19 143.07zm-812.38 -143.07l596.2 0 183.24 164.87 -596.2 0 -216.19 -143.07 32.94 -21.8zm-32.94 3601.41l0 -3579.61 249.13 121.27 0 3579.61 -32.94 21.8 -216.19 -143.07zm1068.58 -2148.93l183.24 164.87 0 0 -21.57 0.72 -21.68 2.23 -21.64 3.77 -21.47 5.37 -21.19 6.98 -20.83 8.61 -20.38 10.24 -19.86 11.85 -19.3 13.46 -18.69 15.05 -18.04 16.62 -17.35 18.17 -16.64 19.69 -15.91 21.18 -15.15 22.66 -14.38 24.12 -13.6 25.54 -12.78 26.93 -11.97 28.32 -11.14 29.66 -10.3 31 -9.45 32.29 -8.58 33.54 -7.72 34.8 -6.84 36.02 -5.96 37.22 -5.06 38.38 -4.16 39.53 -3.25 40.65 -2.32 41.75 -1.42 42.81 -0.46 43.86 -249.13 -121.27 0.48 -44.92 1.44 -43.89 2.4 -42.83 3.33 -41.75 4.28 -40.65 5.2 -39.52 6.16 -38.38 7.06 -37.18 7.98 -36 8.9 -34.78 9.81 -33.54 10.74 -32.28 11.62 -30.98 12.55 -29.68 13.46 -28.35 14.36 -26.98 15.26 -25.6 16.19 -24.2 17.09 -22.76 18.02 -21.32 18.97 -19.84 19.91 -18.34 20.86 -16.81 21.87 -15.26 22.9 -13.65 23.96 -12.04 25.09 -10.37 26.27 -8.64 27.55 -6.88 28.9 -5.03 30.38 -3.11 32.01 -1.06 0 0zm668.22 927.88l-249.13 -121.27 0 0 -0.45 -42.62 -1.35 -41.7 -2.26 -40.73 -3.14 -39.74 -4.03 -38.69 -4.9 -37.62 -5.76 -36.48 -6.6 -35.31 -7.44 -34.1 -8.26 -32.81 -9.04 -31.49 -9.81 -30.07 -10.53 -28.59 -11.19 -27 -11.75 -25.31 -12.22 -23.46 -12.51 -21.46 -12.55 -19.2 -12.23 -16.69 -11.36 -13.79 -9.76 -10.5 -7.16 -6.8 -3.62 -3.02 0.25 0.14 3.14 1.9 3.41 1.76 0.67 0.31 -4.13 -1.36 -9.25 -2.35 -13.84 -2.45 -17.59 -1.83 -20.57 -0.69 -183.24 -164.87 33.98 1.17 35.33 3.73 37.44 6.7 40.39 10.38 43.86 14.85 46.99 19.95 48.09 24.78 46.12 28.2 41.58 29.68 36.03 29.7 30.79 29.03 26.49 28.37 23.19 28.06 20.6 28.08 18.59 28.41 16.89 28.96 15.46 29.66 14.17 30.49 13.01 31.38 11.91 32.35 10.87 33.32 9.86 34.3 8.9 35.32 7.92 36.32 6.98 37.31 6.04 38.28 5.12 39.24 4.17 40.19 3.26 41.1 2.32 42.01 1.39 42.86 0.47 43.72 0 0zm-484.98 815.28l-183.24 -164.87 0 0 21.58 -0.76 21.76 -2.34 21.76 -3.99 21.6 -5.66 21.33 -7.36 20.95 -9.07 20.5 -10.74 19.95 -12.43 19.38 -14.09 18.76 -15.71 18.08 -17.3 17.37 -18.88 16.65 -20.4 15.9 -21.89 15.13 -23.37 14.33 -24.78 13.54 -26.2 12.72 -27.56 11.91 -28.88 11.06 -30.17 10.23 -31.42 9.36 -32.66 8.51 -33.83 7.64 -34.98 6.76 -36.1 5.89 -37.19 5 -38.23 4.1 -39.25 3.19 -40.23 2.3 -41.17 1.38 -42.08 0.46 -42.96 249.13 121.27 -0.48 44.02 -1.4 43.16 -2.36 42.25 -3.29 41.31 -4.22 40.35 -5.14 39.35 -6.07 38.31 -6.98 37.26 -7.88 36.14 -8.81 35.03 -9.72 33.87 -10.63 32.68 -11.54 31.47 -12.45 30.2 -13.36 28.92 -14.26 27.6 -15.19 26.26 -16.11 24.87 -17.02 23.45 -17.97 22 -18.91 20.53 -19.87 19.04 -20.85 17.47 -21.87 15.89 -22.91 14.27 -24.02 12.6 -25.17 10.87 -26.39 9.1 -27.74 7.25 -29.16 5.33 -30.74 3.3 -32.48 1.14 0 0zm-668.23 -936.55l249.13 121.27 0 0 0.47 43.85 1.43 42.83 2.36 41.76 3.28 40.65 4.2 39.53 5.1 38.35 5.98 37.13 6.84 35.89 7.67 34.59 8.51 33.22 9.29 31.84 10.06 30.34 10.76 28.82 11.41 27.18 11.96 25.43 12.39 23.52 12.66 21.5 12.67 19.22 12.31 16.67 11.4 13.76 9.75 10.42 7.21 6.82 3.7 3.08 -0.24 -0.13 -3.1 -1.88 -3.5 -1.81 -0.88 -0.4 3.66 1.21 8.73 2.22 13.18 2.37 16.82 1.76 19.76 0.67 183.24 164.87 -33.31 -1.17 -34.8 -3.7 -36.98 -6.68 -39.97 -10.33 -43.55 -14.82 -46.58 -19.84 -47.68 -24.61 -45.75 -27.98 -41.33 -29.47 -35.81 -29.46 -30.74 -28.85 -26.58 -28.33 -23.31 -28.03 -20.76 -28.08 -18.77 -28.45 -17.12 -29.04 -15.71 -29.8 -14.42 -30.67 -13.27 -31.6 -12.2 -32.62 -11.14 -33.65 -10.15 -34.71 -9.15 -35.78 -8.19 -36.85 -7.22 -37.91 -6.28 -38.97 -5.32 -40.01 -4.36 -41.05 -3.4 -42.07 -2.42 -43.04 -1.47 -44.03 -0.49 -44.97 0 0z"/>
    <path id="_1_2" class="fil2" d="M6970.42 7524.57l587.79 0 0 -429.99 26.6 0c82.55,223.71 263.09,473.67 610.19,473.67 489.8,0 871.91,-484.13 871.91,-1382.56 0,-922.79 -398.93,-1380.75 -870.54,-1380.75 -359.62,0 -531.76,267.38 -611.56,485.85l-18.2 0 0 -1345.83 -596.2 0 0 3579.61zm583.59 -1342.31c0,-478.91 162.35,-784.81 452.05,-784.81 295.27,0 452.04,319.81 452.04,784.81 0,468.43 -159.52,793.48 -452.04,793.48 -286.86,0 -452.05,-314.58 -452.05,-793.48z"/>
   </g>
  </g>
 </g>
</svg>
